<svg id="Gamepad" xmlns="http://www.w3.org/2000/svg" viewBox="0 0 200 200">
  <defs>
    <style>
      .cls-1 {
        fill: gray;
      }

      .cls-2 {
        fill: #b4b4b4;
      }

      .cls-3, .cls-4 {
        fill: none;
      }

      .cls-3 {
        stroke: #000;
        stroke-miterlimit: 10;
      }
    </style>
  </defs>
  <title>NavPad</title>
  <g id="NW">
    <rect id="btn" class="cls-1" x="2.5" y="2.5" width="45" height="45" rx="4.5" ry="4.5" transform="translate(0.5 50.5) rotate(-90)"/>
    <polygon id="arrow" class="cls-2" points="20.5 34.9 20.5 20.5 34.9 20.5 20.5 34.9"/>
  </g>
  <g id="W">
    <rect id="btn-2" data-name="btn" class="cls-1" x="3" y="55.5" width="45" height="90" rx="4.5" ry="4.5"/>
    <polygon id="arrow-2" data-name="arrow" class="cls-2" points="32.63 114.08 19.05 100.5 32.63 86.92 32.63 114.08"/>
  </g>
  <g id="SW">
    <rect id="btn-3" data-name="btn" class="cls-1" x="2.5" y="152.5" width="45" height="45" rx="4.5" ry="4.5" transform="translate(50.5 350.5) rotate(-180)"/>
    <polygon id="arrow-3" data-name="arrow" class="cls-2" points="34.9 180.5 20.5 180.5 20.5 166.1 34.9 180.5"/>
  </g>
  <g id="S">
    <rect id="btn-4" data-name="btn" class="cls-1" x="77.5" y="130" width="45" height="90" rx="4.5" ry="4.5" transform="translate(-74.5 275.5) rotate(-90)"/>
    <polygon id="arrow-4" data-name="arrow" class="cls-2" points="114.08 168.37 100.5 181.94 86.92 168.37 114.08 168.37"/>
  </g>
  <g id="SE">
    <rect id="btn-5" data-name="btn" class="cls-1" x="152.5" y="152.5" width="45" height="45" rx="4.5" ry="4.5" transform="translate(350.5 0.5) rotate(90)"/>
    <polygon id="arrow-5" data-name="arrow" class="cls-2" points="180.5 166.1 180.5 180.5 166.1 180.5 180.5 166.1"/>
  </g>
  <g id="E">
    <rect id="btn-6" data-name="btn" class="cls-1" x="153" y="55.5" width="45" height="90" rx="4.5" ry="4.5"/>
    <polygon id="arrow-6" data-name="arrow" class="cls-2" points="168.37 86.92 181.94 100.5 168.37 114.08 168.37 86.92"/>
  </g>
  <g id="NE">
    <rect id="btn-7" data-name="btn" class="cls-1" x="153" y="3" width="45" height="45" rx="4.5" ry="4.5"/>
    <polygon id="arrow-7" data-name="arrow" class="cls-2" points="166.1 20.5 180.5 20.5 180.5 34.9 166.1 20.5"/>
  </g>
  <g id="N">
    <rect id="btn-8" data-name="btn" class="cls-1" x="55.5" y="3" width="90" height="45" rx="4.5" ry="4.5"/>
    <polygon id="arrow-8" data-name="arrow" class="cls-2" points="86.92 32.63 100.5 19.05 114.08 32.63 86.92 32.63"/>
  </g>
  <rect id="core" class="cls-3" x="55.5" y="55.5" width="90" height="90"/>
  <rect id="frame" class="cls-4" width="200" height="200"/>
</svg>
